<svg id='Button_Play_Alternate_24' width='24' height='24' viewBox='0 0 24 24' xmlns='http://www.w3.org/2000/svg' xmlns:xlink='http://www.w3.org/1999/xlink'><rect width='24' height='24' stroke='none' fill='#000000' opacity='0'/>


<g transform="matrix(0.83 0 0 0.83 12 12)" >
<g style="" >
<g transform="matrix(1 0 0 1 0 0)" >
<path style="stroke: none; stroke-width: 1; stroke-dasharray: none; stroke-linecap: butt; stroke-dashoffset: 0; stroke-linejoin: miter; stroke-miterlimit: 4; fill: rgb(0,0,0); fill-rule: nonzero; opacity: 1;" transform=" translate(-12, -12)" d="M 12 0 C 5.372583002030479 0 0 5.372583002030479 0 12 C 0 18.627416997969522 5.372583002030479 24 12 24 C 18.627416997969522 24 24 18.627416997969522 24 12 C 24 5.372583002030479 18.627416997969522 0 12 0 Z M 12 21.43 C 6.791954809095618 21.43 2.5700000000000003 17.208045190904382 2.5700000000000003 12 C 2.5700000000000003 6.791954809095618 6.7919548090956186 2.5700000000000003 12 2.5700000000000003 C 17.208045190904382 2.5700000000000003 21.43 6.791954809095616 21.43 11.999999999999998 C 21.424488337901924 17.205760476522773 17.20576047652277 21.424488337901927 11.999999999999998 21.43 Z" stroke-linecap="round" />
</g>
<g transform="matrix(1 0 0 1 0.97 -0.03)" >
<path style="stroke: none; stroke-width: 1; stroke-dasharray: none; stroke-linecap: butt; stroke-dashoffset: 0; stroke-linejoin: miter; stroke-miterlimit: 4; fill: rgb(0,0,0); fill-rule: nonzero; opacity: 1;" transform=" translate(-12.97, -11.97)" d="M 16.61 10.71 L 10.68 7.710000000000001 C 10.201842915526333 7.431004158457939 9.607957281210115 7.442191106973179 9.140646493720997 7.738996607135188 C 8.673335706231878 8.035802107297195 8.410740939649823 8.568595953947073 8.46 9.12 L 8.46 14.879999999999999 C 8.4409428589696 15.41880116028331 8.706870852283522 15.92786331891282 9.16 16.22 C 9.386183555312218 16.366481858070856 9.650543337364025 16.44300705813848 9.92 16.439999999999998 C 10.18496222201584 16.438990708679608 10.445734843482313 16.37379755331299 10.68 16.249999999999996 L 16.61 13.249999999999996 C 17.13695678942239 13.038528088384883 17.48231283577821 12.527806152943501 17.48231283577821 11.959999999999997 C 17.48231283577821 11.392193847056491 17.13695678942239 10.88147191161511 16.61 10.669999999999996 Z" stroke-linecap="round" />
</g>
</g>
</g>
</svg>