<svg id='Entertainment_Volume_High_24' width='24' height='24' viewBox='0 0 24 24' xmlns='http://www.w3.org/2000/svg' xmlns:xlink='http://www.w3.org/1999/xlink'><rect width='24' height='24' stroke='none' fill='#000000' opacity='0'/>


<g transform="matrix(1.43 0 0 1.43 12 12)" >
<g style="" >
<g transform="matrix(1 0 0 1 -5.25 0)" >
<path style="stroke: rgb(0,0,0); stroke-width: 1; stroke-dasharray: none; stroke-linecap: round; stroke-dashoffset: 0; stroke-linejoin: round; stroke-miterlimit: 4; fill: none; fill-rule: nonzero; opacity: 1;" transform=" translate(-1.75, -7)" d="M 3 5 L 1.5 5 C 0.9477152501692065 5 0.5 5.447715250169207 0.5 6 L 0.5 8 C 0.5 8.552284749830793 0.9477152501692065 9 1.5 9 L 3 9 Z" stroke-linecap="round" />
</g>
<g transform="matrix(1 0 0 1 -1.25 0)" >
<path style="stroke: rgb(0,0,0); stroke-width: 1; stroke-dasharray: none; stroke-linecap: round; stroke-dashoffset: 0; stroke-linejoin: round; stroke-miterlimit: 4; fill: none; fill-rule: nonzero; opacity: 1;" transform=" translate(-5.75, -7)" d="M 3 9 L 6.91 11.81 C 7.204880648245753 12.014030235437643 7.586432581710053 12.044554390114786 7.91 11.89 C 8.261853912297795 11.73194911750771 8.49143843208807 11.385626706298652 8.5 11 L 8.5 3 C 8.508712534238427 2.6341994826062622 8.316942256300813 2.29284838787731 8 2.1099999999999994 C 7.676432581710053 1.9554456098852135 7.294880648245753 1.9859697645623575 7 2.1900000000000004 L 3 5" stroke-linecap="round" />
</g>
<g transform="matrix(1 0 0 1 6 0.25)" >
<path style="stroke: rgb(0,0,0); stroke-width: 1; stroke-dasharray: none; stroke-linecap: round; stroke-dashoffset: 0; stroke-linejoin: round; stroke-miterlimit: 4; fill: none; fill-rule: nonzero; opacity: 1;" transform=" translate(-13, -7.25)" d="M 12.5 4 C 13.195288941624533 4.840579625336314 13.551883378097838 5.910362934756226 13.5 6.999999999999998 C 13.484982626587101 8.23500220778018 13.139703396495559 9.44347951310058 12.5 10.5" stroke-linecap="round" />
</g>
<g transform="matrix(1 0 0 1 3.75 0)" >
<path style="stroke: rgb(0,0,0); stroke-width: 1; stroke-dasharray: none; stroke-linecap: round; stroke-dashoffset: 0; stroke-linejoin: round; stroke-miterlimit: 4; fill: none; fill-rule: nonzero; opacity: 1;" transform=" translate(-10.75, -7)" d="M 10.5 5.5 C 10.847644470812266 5.920289812668157 11.025941689048919 6.455181467378114 11 6.999999999999999 C 11.025941689048919 7.5448185326218855 10.847644470812266 8.079710187331841 10.5 8.5" stroke-linecap="round" />
</g>
</g>
</g>
</svg>